<svg width="63" height="63" viewBox="0 0 63 63" fill="none" xmlns="http://www.w3.org/2000/svg">
<g clip-path="url(#clip0_2_615)">
<path fill-rule="evenodd" clip-rule="evenodd" d="M17.8605 27.132L20.9606 21.0131L19.7479 18.375H7.875V15.75H23.604C24.2287 15.75 24.9165 16.2487 24.9165 17.0625C24.9165 17.8789 24.234 18.375 23.604 18.375H22.638L23.8717 21H40.8896L38.682 15.75H47.1949C49.3553 15.7631 51.1061 17.5219 51.1061 19.6875C51.1061 21.861 49.3421 23.625 47.1686 23.625C45.3022 23.625 45.2602 21 47.1686 21C47.796 21 48.4811 20.5039 48.4811 19.6875C48.4811 19.0601 47.985 18.375 47.1686 18.375H42.6353L46.1107 26.7986C47.3025 26.4416 48.5678 26.25 49.875 26.25C57.12 26.25 63 32.13 63 39.375C63 46.62 57.12 52.5 49.875 52.5C42.6326 52.5 36.75 46.62 36.75 39.375C36.75 34.3717 39.5561 30.0195 43.68 27.804L42.5512 25.0766L30.7571 40.6875H26.1844C25.5255 47.3156 19.9264 52.5 13.125 52.5C5.88262 52.5 0 46.62 0 39.375C0 32.13 5.88262 26.25 13.125 26.25C14.7945 26.25 16.3905 26.5624 17.8605 27.132ZM16.6661 29.4866C15.561 29.0902 14.3666 28.875 13.125 28.875C7.33162 28.875 2.625 33.579 2.625 39.375C2.625 45.171 7.33162 49.875 13.125 49.875C18.4748 49.875 22.8979 45.864 23.5463 40.6875H15.4009C14.9441 41.4724 14.0963 42 13.125 42C11.6786 42 10.5 40.824 10.5 39.375C10.5 37.9759 11.5999 36.8287 12.9833 36.7552L16.6661 29.4866ZM44.688 30.2479C41.517 32.0539 39.375 35.4664 39.375 39.375C39.375 45.171 44.079 49.875 49.875 49.875C55.671 49.875 60.375 45.171 60.375 39.375C60.375 33.579 55.671 28.875 49.875 28.875C48.9221 28.875 47.9955 29.0036 47.1188 29.2425L50.2215 36.7736C51.5077 36.9416 52.5 38.0441 52.5 39.375C52.5 40.824 51.324 42 49.875 42C48.4286 42 47.25 40.824 47.25 39.375C47.25 38.7739 47.4521 38.22 47.7934 37.7764L44.688 30.2479ZM19.0076 30.6784L15.3247 37.9391L15.4009 38.0625H23.5463C23.1604 34.9939 21.4515 32.3321 19.0076 30.6784ZM20.1994 28.3211C23.4911 30.4316 25.7801 33.9701 26.1844 38.0625H28.8041L22.3597 24.0555L20.1994 28.3211ZM40.3673 23.625H25.0399L30.8438 36.2171L40.3673 23.625ZM2.625 23.625H13.125V21H2.625V23.625ZM5.25 13.125H15.75V10.5H5.25V13.125Z" fill="black"/>
</g>
<defs>
<clipPath id="clip0_2_615">
<rect width="63" height="63" fill="white"/>
</clipPath>
</defs>
</svg>
