<svg width="55" height="41" viewBox="0 0 55 41" fill="none" xmlns="http://www.w3.org/2000/svg">
<path d="M53.8542 9.11111C54.4867 9.11111 55 9.62133 55 10.25V11.4139C55 13.2202 52.8779 13.6667 51.2967 13.6667L48.8079 9.11111H53.8542ZM50.5519 17.097C52.0163 19.7984 52.7198 22.2266 52.7198 25.4473C52.7198 28.5679 51.81 31.2169 50.4167 34.5152V38.7222C50.4167 39.9796 49.39 41 48.125 41H44.6875C43.4225 41 42.3958 39.9796 42.3958 38.7222V36.4444H12.6042V38.7222C12.6042 39.9796 11.5775 41 10.3125 41H6.875C5.61 41 4.58333 39.9796 4.58333 38.7222V34.5152C3.19 31.2169 2.28021 28.5679 2.28021 25.4473C2.28021 22.2266 2.98375 19.7984 4.44813 17.097C6.34792 13.5961 8.69 9.23183 11.1627 5.13411C13.0602 1.98622 14.0548 1.24594 16.3831 0.831389C19.894 0.205 23.0702 0 27.5 0C31.9298 0 35.106 0.205 38.6169 0.831389C40.9452 1.24594 41.9398 1.98622 43.8373 5.13411C46.31 9.23183 48.6521 13.5961 50.5519 17.097ZM13.75 23.9167C13.75 22.0307 12.21 20.5 10.3125 20.5C8.415 20.5 6.875 22.0307 6.875 23.9167C6.875 25.8027 8.415 27.3333 10.3125 27.3333C12.21 27.3333 13.75 25.8027 13.75 23.9167ZM36.6667 26.1944C36.6667 25.5658 36.1533 25.0556 35.5208 25.0556H19.4792C18.8467 25.0556 18.3333 25.5658 18.3333 26.1944C18.3333 26.8231 18.8467 27.3333 19.4792 27.3333H35.5208C36.1533 27.3333 36.6667 26.8231 36.6667 26.1944ZM43.4065 13.6052C43.4065 13.6052 41.7106 9.44594 39.6688 6.44839C39.2058 5.76961 38.4885 5.30494 37.6773 5.15917C34.2146 4.53961 31.1804 4.34144 27.5 4.34144C23.8196 4.34144 20.7854 4.53961 17.3227 5.15917C16.5115 5.30267 15.7942 5.76733 15.3313 6.44839C13.2894 9.44367 11.5935 13.6052 11.5935 13.6052C15.3519 14.3181 21.4683 14.7372 27.5 14.7372C33.5317 14.7372 39.6481 14.3181 43.4065 13.6052ZM48.125 23.9167C48.125 22.0307 46.585 20.5 44.6875 20.5C42.79 20.5 41.25 22.0307 41.25 23.9167C41.25 25.8027 42.79 27.3333 44.6875 27.3333C46.585 27.3333 48.125 25.8027 48.125 23.9167ZM6.19208 9.11111H1.14583C0.513333 9.11111 0 9.62133 0 10.25V11.4139C0 13.2202 2.12208 13.6667 3.70333 13.6667L6.19208 9.11111Z" fill="black"/>
</svg>
