<svg width="67" height="67" viewBox="0 0 67 67" fill="none" xmlns="http://www.w3.org/2000/svg">
<path d="M33.5002 54.4375C46.6054 54.4375 57.2293 44.5844 57.2293 30.7083H9.771C9.771 44.5844 20.395 54.4375 33.5002 54.4375Z" fill="#1C1B1E"/>
<path fill-rule="evenodd" clip-rule="evenodd" d="M7.67725 30.7083C7.67725 29.552 8.61465 28.6146 9.771 28.6146H57.2293C58.3857 28.6146 59.3231 29.552 59.3231 30.7083C59.3231 45.7853 47.7167 56.5312 33.5002 56.5312C19.2837 56.5312 7.67725 45.7853 7.67725 30.7083ZM11.9542 32.8021C12.9521 44.3591 22.178 52.3437 33.5002 52.3437C44.8224 52.3437 54.0483 44.3591 55.0461 32.8021H11.9542Z" fill="#1C1B1E"/>
<path fill-rule="evenodd" clip-rule="evenodd" d="M25.7873 51.0553C26.8843 51.421 27.4772 52.6067 27.1115 53.7037L25.2384 59.3229H41.7619L39.8889 53.7037C39.5232 52.6067 40.1161 51.421 41.2131 51.0553C42.3101 50.6897 43.4958 51.2825 43.8615 52.3795L46.6532 60.7545C46.866 61.393 46.7589 62.0949 46.3654 62.6409C45.9719 63.1869 45.3399 63.5104 44.6668 63.5104H22.3335C21.6605 63.5104 21.0285 63.1869 20.635 62.6409C20.2414 62.0949 20.1344 61.393 20.3472 60.7545L23.1389 52.3795C23.5045 51.2825 24.6903 50.6897 25.7873 51.0553Z" fill="#1C1B1E"/>
<path fill-rule="evenodd" clip-rule="evenodd" d="M16.75 11.8646C17.9063 11.8646 18.8438 12.802 18.8438 13.9583V19.5416C18.8438 20.698 17.9063 21.6354 16.75 21.6354C15.5937 21.6354 14.6562 20.698 14.6562 19.5416V13.9583C14.6562 12.802 15.5937 11.8646 16.75 11.8646Z" fill="#1C1B1E"/>
<path fill-rule="evenodd" clip-rule="evenodd" d="M50.25 11.8646C51.4063 11.8646 52.3438 12.802 52.3438 13.9583V19.5416C52.3438 20.698 51.4063 21.6354 50.25 21.6354C49.0937 21.6354 48.1562 20.698 48.1562 19.5416V13.9583C48.1562 12.802 49.0937 11.8646 50.25 11.8646Z" fill="#1C1B1E"/>
<path fill-rule="evenodd" clip-rule="evenodd" d="M33.5 4.88544C34.6563 4.88544 35.5938 5.82284 35.5938 6.97919V19.5417C35.5938 20.698 34.6563 21.6354 33.5 21.6354C32.3437 21.6354 31.4062 20.698 31.4062 19.5417V6.97919C31.4062 5.82284 32.3437 4.88544 33.5 4.88544Z" fill="#1C1B1E"/>
</svg>
