<svg width="28" height="28" viewBox="0 0 28 28" fill="none" xmlns="http://www.w3.org/2000/svg">
<g clip-path="url(#clip0_2_1115)">
<path d="M16.8629 7.16635C16.0237 7.12769 15.7712 7.12087 13.6459 7.12087C11.5205 7.12087 11.2692 7.12883 10.43 7.16635C8.27053 7.26528 7.26528 8.28759 7.16635 10.43C7.12883 11.2692 7.11973 11.5205 7.11973 13.6459C7.11973 15.7712 7.12883 16.0225 7.16635 16.8629C7.26528 18.9996 8.26598 20.0276 10.43 20.1265C11.2681 20.164 11.5205 20.1731 13.6459 20.1731C15.7723 20.1731 16.0237 20.1652 16.8629 20.1265C19.0223 20.0287 20.0264 19.003 20.1265 16.8629C20.164 16.0237 20.172 15.7712 20.172 13.6459C20.172 11.5205 20.164 11.2692 20.1265 10.43C20.0264 8.28872 19.0201 7.26528 16.8629 7.16635ZM13.6459 17.7339C11.3886 17.7339 9.55779 15.9043 9.55779 13.6459C9.55779 11.3886 11.3886 9.55893 13.6459 9.55893C15.9031 9.55893 17.7339 11.3886 17.7339 13.6459C17.7339 15.9031 15.9031 17.7339 13.6459 17.7339ZM17.8954 10.3527C17.3678 10.3527 16.9402 9.92509 16.9402 9.39745C16.9402 8.86981 17.3678 8.44224 17.8954 8.44224C18.4231 8.44224 18.8506 8.86981 18.8506 9.39745C18.8506 9.92395 18.4231 10.3527 17.8954 10.3527ZM16.2988 13.6459C16.2988 15.1117 15.1105 16.2988 13.6459 16.2988C12.1812 16.2988 10.9929 15.1117 10.9929 13.6459C10.9929 12.1801 12.1812 10.9929 13.6459 10.9929C15.1105 10.9929 16.2988 12.1801 16.2988 13.6459ZM13.6459 0C6.10993 0 0 6.10993 0 13.6459C0 21.1818 6.10993 27.2917 13.6459 27.2917C21.1818 27.2917 27.2917 21.1818 27.2917 13.6459C27.2917 6.10993 21.1818 0 13.6459 0ZM21.5582 16.9277C21.4274 19.8218 19.8161 21.4251 16.9288 21.5582C16.0794 21.5969 15.8076 21.6059 13.6459 21.6059C11.4841 21.6059 11.2135 21.5969 10.364 21.5582C7.47111 21.4251 5.86658 19.8195 5.73354 16.9277C5.69487 16.0794 5.68578 15.8076 5.68578 13.6459C5.68578 11.4841 5.69487 11.2135 5.73354 10.364C5.86658 7.47111 7.47225 5.86658 10.364 5.73467C11.2135 5.69487 11.4841 5.68578 13.6459 5.68578C15.8076 5.68578 16.0794 5.69487 16.9288 5.73467C19.8229 5.86772 21.4286 7.4768 21.5582 10.364C21.5969 11.2135 21.6059 11.4841 21.6059 13.6459C21.6059 15.8076 21.5969 16.0794 21.5582 16.9277Z" fill="#000A1F"/>
</g>
<defs>
<clipPath id="clip0_2_1115">
<rect width="27.2917" height="27.2917" fill="white"/>
</clipPath>
</defs>
</svg>
