<svg width="167" height="69" viewBox="0 0 167 69" fill="none" xmlns="http://www.w3.org/2000/svg">
<path d="M60.7937 5.7786C60.8375 5.71177 60.8813 5.64493 61.0139 5.55782C61.2001 5.37945 61.2977 5.22137 61.3953 5.06328C61.3953 5.06328 61.4018 5.07617 61.4351 5.05937C61.493 4.99366 61.5178 4.94474 61.5426 4.89582C61.5426 4.89582 61.5545 4.8344 61.6292 4.81049C61.8503 4.58376 61.9967 4.38095 62.143 4.17814C62.143 4.17814 62.1599 4.18997 62.187 4.1697C62.24 4.10397 62.266 4.0585 62.292 4.01303C62.292 4.01303 62.304 3.94886 62.3563 3.91435C62.4466 3.85321 62.4658 3.8167 62.4662 3.77031C62.4662 3.77031 62.4656 3.75763 62.5234 3.75145C63.1768 3.2661 64.0578 3.00998 63.9564 1.98597C63.9564 1.98597 63.9552 1.97423 64.0067 1.96653C64.1166 1.85965 64.1748 1.76047 64.233 1.6613C64.233 1.6613 64.2392 1.66339 64.2735 1.64585C64.3292 1.58373 64.3507 1.53914 64.3721 1.49455C64.3721 1.49455 64.3834 1.50975 64.4145 1.48971C64.4692 1.4205 64.4928 1.37133 64.5165 1.32216C64.5575 1.25477 64.5985 1.18737 64.7249 1.09325C64.9591 0.859776 65.1079 0.653033 65.2566 0.446289C65.2566 0.446289 65.2823 0.471119 65.3185 0.476935C65.5868 0.624135 65.819 0.765519 66.0512 0.906903C66.0512 0.906903 66.0287 0.915513 66.0295 0.960011C66.1199 1.12756 66.2095 1.25061 66.299 1.37366C66.299 1.37366 66.3449 1.41852 66.3375 1.50752C66.5376 1.96012 66.7452 2.32373 66.9527 2.68733C66.9527 2.68733 66.9258 2.70243 66.9289 2.74275C67.0143 2.90962 67.0966 3.03617 67.1789 3.16273C67.2079 3.20348 67.237 3.24424 67.2579 3.37378C67.3284 3.56013 67.407 3.65769 67.4856 3.75524C67.4856 3.75524 67.5317 3.80215 67.5286 3.88404C67.5809 4.04168 67.6362 4.11744 67.6915 4.1932C67.6915 4.1932 67.7274 4.21357 67.7116 4.28442C67.7734 4.45336 67.851 4.55145 67.9287 4.64953C67.9287 4.64953 67.9772 4.69355 67.9702 4.7783C68.0557 4.98923 68.1482 5.1154 68.2407 5.24157C68.2407 5.24157 68.2831 5.27338 68.2848 5.34144C68.3204 5.45183 68.3542 5.49417 68.3881 5.53651C68.3881 5.53651 68.4316 5.57575 68.4332 5.64557C68.4695 5.75498 68.5041 5.79457 68.5388 5.83416C68.5388 5.83416 68.5834 5.872 68.5744 5.95413C68.6547 6.16822 68.744 6.30019 68.8332 6.43215C68.8332 6.43215 68.878 6.46965 68.8782 6.5384C68.9112 6.64661 68.944 6.68607 68.9768 6.72553C68.9768 6.72553 69.0218 6.77263 69.0165 6.85429C69.1006 7.06429 69.1899 7.19263 69.2792 7.32096C69.2792 7.32096 69.3253 7.35461 69.3203 7.43601C69.4016 7.65188 69.488 7.78635 69.5743 7.92082C69.5743 7.92082 69.618 7.96255 69.6197 8.0321C69.6559 8.13905 69.6905 8.17644 69.7251 8.21384C69.7251 8.21384 69.7713 8.25094 69.7731 8.32103C69.8092 8.43103 69.8435 8.47093 69.8778 8.51084C69.8778 8.51084 69.9213 8.54963 69.9207 8.61886C69.9528 8.72853 69.9855 8.76898 70.0181 8.80942C70.0181 8.80942 70.0647 8.85117 70.0575 8.94078C69.935 9.87525 69.7749 9.92492 68.2757 9.52006C68.1425 10.2439 68.0186 10.9579 67.879 11.6689C67.4132 14.042 66.9236 16.4105 66.4791 18.7875C66.186 20.355 65.9751 21.9378 65.6906 23.5071C65.3569 25.3487 64.9765 27.1818 64.6343 29.0219C64.5819 29.3041 64.6259 29.6042 64.6254 29.896C64.6153 29.9853 64.6052 30.0746 64.5323 30.233C63.9323 31.0046 63.991 31.8036 64.0964 32.6102C64.0963 32.6782 64.0961 32.7462 64.0479 32.8998C63.9787 33.1467 63.9576 33.3081 63.9366 33.4695C63.9366 33.4695 63.9519 33.4924 63.9046 33.5313C63.7896 34.0441 63.7219 34.518 63.6542 34.9919C63.6526 35.0582 63.6509 35.1246 63.5862 35.2566C63.4726 35.4036 63.3916 35.4795 63.3761 35.5671C63.1126 37.0503 62.8489 38.5334 62.6036 40.0196C62.4876 40.7228 62.4102 41.4323 62.3154 42.139C61.4063 47.4886 60.1423 52.7048 56.5706 57.0222C55.5541 58.2508 54.3369 59.2541 52.8166 59.993C52.6848 60.0307 52.6534 60.0648 52.6356 60.1115C52.6356 60.1115 52.6236 60.1333 52.5656 60.1219C52.4067 60.1753 52.306 60.2401 52.2052 60.3048C52.2052 60.3048 52.203 60.2892 52.1496 60.2861C51.7197 60.3705 51.3254 60.5726 50.9709 60.5178C50.4919 60.4437 50.3391 60.6166 50.2652 61.0125C50.2652 61.0125 50.2465 61.0355 50.1719 61.0208C48.3086 61.1156 46.5211 61.2588 44.7308 61.3206C43.8501 61.3509 42.9642 61.2307 42.0806 61.1787C42.055 61.1771 42.0294 61.1754 41.9557 61.1128C41.7201 60.9101 41.5527 60.7109 41.3416 60.6379C40.7635 60.4379 40.1624 60.3051 39.5793 60.1179C39.2148 60.0009 38.8664 59.8337 38.5108 59.689C38.5108 59.689 38.5054 59.6903 38.4901 59.6525C38.4299 59.5945 38.385 59.5743 38.34 59.5541C38.34 59.5541 38.3522 59.5433 38.3336 59.5141C38.2681 59.4643 38.2212 59.4439 38.1744 59.4235C38.1744 59.4235 38.192 59.409 38.1776 59.3685C37.865 59.0969 37.5668 58.8659 37.2687 58.6348C37.2438 58.6213 37.2189 58.6078 37.178 58.5016C36.8707 58.0902 36.5795 57.7715 36.2883 57.4528C36.248 57.4105 36.2077 57.3681 36.1587 57.2329C36.0272 56.9601 35.9043 56.7801 35.7814 56.6001C35.7814 56.6001 35.8143 56.5767 35.8055 56.5317C35.7282 56.1996 35.6636 55.9116 35.5906 55.6258C35.276 54.3945 34.7539 53.1742 34.691 51.9304C34.597 50.0711 34.8284 48.1956 34.915 46.3267C34.9383 45.8242 34.9389 45.3207 34.9498 44.8177C34.947 44.7484 34.9441 44.6791 34.9957 44.5223C35.3214 43.0417 35.608 41.6514 35.8585 40.2545C36.0271 39.3146 36.1448 38.3656 36.2853 37.4207C36.2853 37.4207 36.2739 37.3904 36.3252 37.3438C36.6832 36.0163 37.0341 34.744 37.2871 33.4525C37.7607 31.035 38.1658 28.6042 38.6215 26.1831C39.0494 23.91 39.5241 21.6457 39.939 19.3703C40.0723 18.6393 40.0811 17.8856 40.1468 17.1422C40.1478 17.076 40.1488 17.0098 40.2158 16.8753C40.4812 15.6237 40.6806 14.4405 40.88 13.2572C40.88 13.2572 40.8729 13.188 40.9151 13.1422C40.9918 13.0717 41.0179 13.0401 41.0359 13.0017C43.7667 12.9933 46.4976 12.9848 49.3011 13.0387C49.384 13.5418 49.4553 13.9915 49.3929 14.4217C49.2235 15.5908 48.9975 16.7517 48.7939 17.9158C48.1684 20.8669 47.5472 23.8188 46.9165 26.7687C45.577 33.0333 44.2111 39.2923 42.9085 45.5645C42.6484 46.8167 42.5637 48.1147 42.5024 49.3966C42.4142 51.2402 43.2713 52.5927 44.826 53.2639C46.5624 54.0135 48.5781 53.697 49.8065 52.4849C50.8796 51.4261 51.5212 50.0997 51.8703 48.682C52.5855 45.7771 53.2277 42.8517 53.8091 39.9167C55.0108 33.8501 56.1516 27.7716 57.3201 21.6985C58.0308 18.0052 58.7475 14.3132 59.457 10.6197C59.4932 10.4311 59.4863 10.2342 59.507 9.93204C58.8156 9.93204 58.1636 9.93204 57.2865 9.93204C58.1377 8.9132 58.844 8.06788 59.6269 7.18065C59.7258 7.09504 59.748 7.05132 59.7702 7.00761C59.7702 7.00761 59.7764 7.01886 59.8084 7.00194C59.865 6.93883 59.8897 6.89265 59.9143 6.84647C59.9549 6.7736 59.9956 6.70073 60.124 6.60318C60.4058 6.31186 60.5997 6.04523 60.7937 5.7786Z" fill="white"/>
<path d="M26.3377 55.9757C26.6864 57.6837 27.0222 59.3301 27.3706 61.0386C24.2149 61.0386 21.1304 61.0386 18.0084 61.0386C16.999 54.3331 15.9939 47.6556 14.9632 40.8085C14.6788 41.1739 14.4701 41.4268 14.2779 41.6916C13.7105 42.4736 13.2089 43.3128 12.5714 44.032C11.736 44.9744 11.6502 46.136 11.4274 47.264C10.5214 51.851 9.63017 56.4409 8.72907 61.0523C5.83552 61.0523 2.96873 61.0523 0 61.0523C3.06138 45.0464 6.11304 29.0914 9.17358 13.0899C12.0749 13.0899 14.9332 13.0899 17.9044 13.0899C16.4909 20.4257 15.0872 27.7102 13.6836 34.9947C13.7465 35.0062 13.8094 35.0177 13.8724 35.0292C18.1407 27.7084 22.4091 20.3876 26.6737 13.0732C29.8867 13.0732 33.0764 13.0732 36.3846 13.0732C36.2123 13.3498 36.0955 13.5536 35.9634 13.747C31.4073 20.4131 26.8442 27.0745 22.3095 33.7552C22.0898 34.0788 21.9758 34.5994 22.0522 34.9801C23.4546 41.9625 24.8935 48.9375 26.3377 55.9757Z" fill="white"/>
<path d="M76.2468 37.0561C75.3642 31.5191 74.4934 26.0458 73.6223 20.5726C73.23 18.1077 72.8371 15.643 72.4326 13.1039C75.635 13.1039 78.7858 13.1039 82.0116 13.1039C82.3259 16.6672 82.6966 20.2351 82.9403 23.8116C83.1823 27.3641 83.2966 30.9253 83.4758 34.6696C83.7566 33.9258 83.9952 33.3276 84.2095 32.7209C86.2421 26.9675 89.014 21.5375 91.5213 15.9918C91.9086 15.1351 92.2873 14.2731 92.717 13.4377C92.8125 13.2521 93.1059 13.0568 93.3098 13.0551C96.2333 13.0304 99.1572 13.0382 102.247 13.0382C101.778 13.9175 101.364 14.7104 100.935 15.4951C98.0613 20.7493 95.1853 26.0022 92.3083 31.2546C90.2878 34.9433 88.2374 38.6162 86.2669 42.3314C85.8972 43.0284 85.799 43.8842 85.6488 44.6805C84.6443 50.0043 83.6599 55.3318 82.6665 60.6576C82.6442 60.777 82.5915 60.8907 82.5407 61.0442C79.5994 61.0442 76.665 61.0442 73.6553 61.0442C74.0195 59.1009 74.3696 57.2079 74.7298 55.3169C75.489 51.3313 76.321 47.3577 76.972 43.3547C77.1518 42.2493 76.8208 41.0548 76.6843 39.9059C76.5734 38.9735 76.4027 38.0483 76.2468 37.0561Z" fill="white"/>
<path d="M98.8861 46.1668C98.8861 46.1668 98.8925 46.1053 98.9674 46.0765C99.1905 45.7487 99.3387 45.4496 99.4868 45.1505C99.4868 45.1505 99.4965 45.1614 99.5367 45.1414C99.6542 44.9455 99.7314 44.7695 99.8087 44.5934C99.8087 44.5934 99.8053 44.5806 99.8436 44.5584C99.8951 44.4889 99.9083 44.4417 99.9216 44.3944C99.9216 44.3944 99.9279 44.4058 99.9609 44.381C100.01 44.2984 100.026 44.2405 100.042 44.1827C100.042 44.1827 100.042 44.1401 100.099 44.1094C100.176 44.026 100.196 43.9734 100.216 43.9208C100.216 43.9208 100.219 43.8666 100.288 43.8365C100.506 43.5042 100.656 43.202 100.805 42.8998C100.805 42.8998 100.836 42.924 100.872 42.9115C101.076 42.5493 101.243 42.1997 101.411 41.8502C101.466 41.7425 101.52 41.6349 101.65 41.4816C101.78 41.2984 101.835 41.1609 101.891 41.0233C101.894 40.9725 101.91 40.926 102.017 40.8446C102.217 40.5627 102.338 40.3203 102.459 40.0778C102.459 40.0778 102.466 40.0119 102.518 39.9705C102.607 39.895 102.624 39.853 102.621 39.8031C102.621 39.8031 102.626 39.8117 102.66 39.7893C102.725 39.688 102.755 39.6092 102.785 39.5304C102.785 39.5304 102.778 39.5227 102.83 39.5002C103.094 39.3506 103.308 39.2235 103.521 39.0963C103.588 39.0894 103.656 39.0825 103.823 39.121C105.077 39.1838 106.231 39.2152 107.385 39.212C107.855 39.2106 108.15 39.3451 108.157 39.861C108.157 39.861 108.149 39.9199 108.08 39.949C107.963 40.0831 107.914 40.1881 107.866 40.293C107.866 40.293 107.855 40.2771 107.814 40.2934C107.699 40.4513 107.626 40.5928 107.552 40.7343C107.552 40.7343 107.547 40.8003 107.496 40.8414C107.408 40.9128 107.389 40.9522 107.388 41.0008C107.388 41.0008 107.388 41.0043 107.353 41.0232C107.301 41.0894 107.284 41.1366 107.267 41.1839C107.267 41.1839 107.261 41.1714 107.227 41.1912C107.172 41.2641 107.15 41.3172 107.128 41.3704C107.128 41.3704 107.125 41.421 107.072 41.4542C106.999 41.5321 106.979 41.5769 106.96 41.6216C106.96 41.6216 106.954 41.6099 106.921 41.6326C106.868 41.7095 106.847 41.7636 106.827 41.8177C106.827 41.8177 106.817 41.8693 106.744 41.8909C106.481 42.234 106.29 42.5555 106.099 42.877C106.099 42.877 106.1 42.9205 106.044 42.9505C105.966 43.0302 105.945 43.08 105.924 43.1298C105.924 43.1298 105.916 43.1922 105.861 43.2286C105.769 43.2992 105.752 43.3415 105.756 43.3919C104.046 45.9104 102.322 48.4199 100.641 50.9585C100.425 51.2856 100.29 51.7919 100.364 52.1669C101.305 56.9736 102.292 61.7714 103.266 66.5717C103.309 66.7843 103.336 67.0001 103.379 67.2691C101.536 67.2691 99.7607 67.2691 97.8965 67.2691C97.3128 63.3948 96.7289 59.5198 96.1086 55.4029C95.3535 56.5815 94.3892 57.3455 94.1494 58.6032C93.6027 61.4706 93.0352 64.334 92.4657 67.2522C90.7599 67.2522 89.0676 67.2522 87.3198 67.2522C89.1163 57.8662 90.9064 48.5136 92.7045 39.1193C94.4071 39.1193 96.0822 39.1193 97.8419 39.1193C97.528 40.7619 97.2207 42.3794 96.9095 43.9962C96.4514 46.3761 95.9876 48.7549 95.537 51.1362C95.5034 51.3139 95.5561 51.5079 95.6728 51.6902C95.8146 51.5848 95.8524 51.4837 95.8902 51.3825C95.8902 51.3825 95.9317 51.408 95.954 51.376C96.0027 51.2558 96.0292 51.1678 96.0557 51.0798C96.0557 51.0798 96.058 51.016 96.1107 50.9735C96.201 50.8935 96.2157 50.8486 96.2075 50.7962C96.2075 50.7962 96.2147 50.8081 96.249 50.7871C96.3119 50.6837 96.3405 50.6013 96.3692 50.5188C96.3692 50.5188 96.377 50.5221 96.4206 50.4984C96.7239 49.9782 96.9836 49.4818 97.2433 48.9853C97.2433 48.9853 97.2463 48.9266 97.2987 48.8874C97.3892 48.8109 97.4038 48.7661 97.3951 48.7137C97.3951 48.7137 97.4131 48.7297 97.4507 48.7071C97.546 48.5379 97.6037 48.3914 97.6613 48.2448C97.6613 48.2448 97.7131 48.265 97.7424 48.2568C98.4041 47.8132 98.7966 47.2508 98.7261 46.4438C98.7261 46.4438 98.7328 46.3893 98.7884 46.3519C98.858 46.2653 98.872 46.216 98.8861 46.1668Z" fill="white"/>
<path d="M139.376 42.6199C139.817 41.5362 140.226 40.5005 140.667 39.4786C140.739 39.3122 140.951 39.0928 141.101 39.0907C143.027 39.0645 144.953 39.0734 146.947 39.0734C147.032 48.5068 147.116 57.8619 147.201 67.2639C145.473 67.2639 143.828 67.2639 142.154 67.2639C142.154 65.1 142.154 62.9577 142.154 60.7166C140.521 60.7166 138.917 60.6931 137.315 60.7466C137.116 60.7532 136.855 61.1396 136.753 61.4009C136.077 63.1304 135.415 64.866 134.799 66.6175C134.609 67.1584 134.335 67.333 133.774 67.3175C132.366 67.2786 130.955 67.3047 129.374 67.3047C132.73 59.0219 136.042 50.8473 139.376 42.6199ZM142.526 44.3906C141.145 48.5339 139.765 52.6772 138.373 56.8535C139.682 56.8535 140.979 56.8535 142.275 56.8535C142.311 56.741 142.35 56.6737 142.352 56.6053C142.473 52.5961 142.592 48.5869 142.702 44.5774C142.704 44.4925 142.606 44.4047 142.526 44.3906Z" fill="white"/>
<path d="M159.885 48.4303C158.681 54.7348 157.484 60.9757 156.278 67.2637C154.567 67.2637 152.848 67.2637 151.018 67.2637C152.488 59.5384 153.95 51.8572 155.431 44.0734C153.774 44.0734 152.226 44.0734 150.556 44.0734C150.754 43.0333 150.916 42.0932 151.114 41.1607C151.26 40.4701 151.246 39.5413 151.685 39.1759C152.099 38.8308 153.011 39.0739 153.704 39.0733C157.668 39.07 161.632 39.0711 165.597 39.0708C165.887 39.0707 166.178 39.0708 166.557 39.0708C166.236 40.7625 165.933 42.3591 165.612 44.0545C164.245 44.0545 162.888 44.0898 161.534 44.0392C160.886 44.0149 160.627 44.2054 160.537 44.8637C160.378 46.0389 160.113 47.1999 159.885 48.4303Z" fill="white"/>
<path d="M119.597 48.8921C120.192 45.7948 120.793 42.7634 121.351 39.7244C121.44 39.2394 121.587 39.0517 122.096 39.0613C123.623 39.0901 125.152 39.0717 126.756 39.0717C125.244 46.9879 123.752 54.8007 122.243 62.6991C124.554 62.6991 126.775 62.6991 129.087 62.6991C128.812 64.1823 128.566 65.5831 128.277 66.9754C128.249 67.1136 127.968 67.2949 127.803 67.2955C123.989 67.3074 120.174 67.2973 116.359 67.2884C116.314 67.2883 116.27 67.2514 116.114 67.1824C117.269 61.1247 118.429 55.0401 119.597 48.8921Z" fill="white"/>
<path d="M64.6523 29.9026C64.626 29.6638 64.5819 29.3637 64.6344 29.0816C64.9766 27.2414 65.3569 25.4083 65.6907 23.5667C65.9751 21.9974 66.1861 20.4147 66.4792 18.8472C66.9236 16.4702 67.4133 14.1016 67.8791 11.7285C68.0186 11.0176 68.1426 10.3035 68.2758 9.5797C69.775 9.98456 69.9351 9.93488 70.0604 9.03156C70.2392 9.26415 70.4079 9.55521 70.6691 10.0059C70.0082 10.0059 69.5005 10.0235 68.9946 10.0005C68.5519 9.98049 68.3446 10.1251 68.2576 10.5984C67.0773 17.0178 65.8756 23.4332 64.6523 29.9026Z" fill="white"/>
<path d="M40.1043 17.2391C40.0812 17.9453 40.0725 18.699 39.9392 19.4301C39.5242 21.7054 39.0495 23.9697 38.6216 26.2428C38.1659 28.6639 37.7608 31.0947 37.2872 33.5122C37.0342 34.8037 36.6833 36.076 36.3369 37.3923C36.7011 35.1951 37.0926 32.9604 37.5113 30.7307C38.3536 26.2445 39.2106 21.761 40.1043 17.2391Z" fill="white"/>
<path d="M34.9258 44.9293C34.9389 45.3805 34.9384 45.884 34.9151 46.3865C34.8284 48.2554 34.5971 50.1309 34.6911 51.9902C34.754 53.2339 35.2761 54.4542 35.5906 55.6855C35.6637 55.9714 35.7283 56.2594 35.7911 56.6055C34.987 55.4108 34.6923 53.9914 34.5137 52.5547C34.1975 50.0125 34.4795 47.4909 34.9258 44.9293Z" fill="white"/>
<path d="M42.1191 61.2796C42.9642 61.2904 43.8501 61.4106 44.7309 61.3802C46.5212 61.3185 48.3087 61.1753 50.1588 61.0735C48.2349 61.7414 46.1896 61.7568 44.1364 61.615C43.4732 61.5692 42.817 61.4218 42.1191 61.2796Z" fill="white"/>
<path d="M36.2597 37.5275C36.1449 38.4254 36.0272 39.3744 35.8586 40.3143C35.608 41.7111 35.3215 43.1015 35.0132 44.5329C35.3955 42.2389 35.8148 39.9067 36.2597 37.5275Z" fill="white"/>
<path d="M62.3586 42.1617C62.4103 41.492 62.4876 40.7825 62.6036 40.0793C62.8489 38.5931 63.1126 37.11 63.3761 35.6268C63.3916 35.5392 63.4726 35.4633 63.5714 35.3639C63.2138 37.6055 62.8079 39.8651 62.3586 42.1617Z" fill="white"/>
<path d="M48.8308 17.9332C48.9975 16.8114 49.2235 15.6505 49.3929 14.4814C49.4553 14.0511 49.384 13.6015 49.37 13.1095C49.9946 12.9055 49.8629 13.3123 49.7905 13.6499C49.4875 15.0645 49.1761 16.4773 48.8308 17.9332Z" fill="white"/>
<path d="M38.5325 59.7937C38.8665 59.8935 39.2149 60.0607 39.5794 60.1777C40.1625 60.3648 40.7635 60.4976 41.3417 60.6976C41.5528 60.7707 41.7202 60.9699 41.9191 61.161C40.8051 60.7531 39.6796 60.2959 38.5325 59.7937Z" fill="white"/>
<path d="M108.203 39.8397C108.15 39.3451 107.855 39.2107 107.385 39.212C106.231 39.2152 105.077 39.1838 103.873 39.1327C105.418 39.099 107.015 39.099 108.722 39.099C108.534 39.3859 108.391 39.6022 108.203 39.8397Z" fill="white"/>
<path d="M40.8463 13.3627C40.6808 14.5002 40.4814 15.6834 40.2312 16.8876C40.3911 15.7419 40.6017 14.5752 40.8463 13.3627Z" fill="white"/>
<path d="M63.9099 2.06274C64.0578 3.06969 63.1768 3.32581 62.5298 3.8113C62.94 3.23836 63.4017 2.65908 63.9099 2.06274Z" fill="white"/>
<path d="M98.6832 46.4722C98.7965 47.2509 98.4041 47.8132 97.7173 48.2448C97.9887 47.6609 98.3145 47.0807 98.6832 46.4722Z" fill="white"/>
<path d="M64.1324 32.6272C63.991 31.8633 63.9323 31.0644 64.5045 30.3289C64.4158 31.0589 64.2921 31.8217 64.1324 32.6272Z" fill="white"/>
<path d="M50.3232 61.0771C50.3393 60.6763 50.4921 60.5034 50.9711 60.5775C51.3257 60.6323 51.7199 60.4302 52.1546 60.3521C51.6021 60.6017 50.9916 60.8419 50.3232 61.0771Z" fill="white"/>
<path d="M97.2012 49.013C96.9837 49.4818 96.7239 49.9782 96.4177 50.4953C96.6338 50.0242 96.8964 49.5325 97.2012 49.013Z" fill="white"/>
<path d="M36.2932 57.5631C36.5797 57.8312 36.8709 58.1499 37.1583 58.5237C36.869 58.2572 36.5834 57.9355 36.2932 57.5631Z" fill="white"/>
<path d="M63.6936 35.0116C63.722 34.5777 63.7897 34.1038 63.894 33.5997C63.8647 34.0368 63.7988 34.5042 63.6936 35.0116Z" fill="white"/>
<path d="M66.0512 0.913632C65.8192 0.825243 65.587 0.683859 65.3044 0.525824C65.3544 0.368254 65.4547 0.227335 65.6165 0C65.7988 0.361092 65.9249 0.610867 66.0512 0.913632Z" fill="white"/>
<path d="M37.2759 58.7396C37.5668 58.9256 37.865 59.1566 38.1722 59.4382C37.8819 59.2541 37.5825 59.0193 37.2759 58.7396Z" fill="white"/>
<path d="M106.143 42.8517C106.29 42.5555 106.481 42.234 106.721 41.9024C106.576 42.2037 106.381 42.5151 106.143 42.8517Z" fill="white"/>
<path d="M66.9473 2.69379C66.7452 2.38345 66.5376 2.01984 66.3389 1.5993C66.5457 1.90843 66.7438 2.27448 66.9473 2.69379Z" fill="white"/>
<path d="M101.369 41.8768C101.243 42.1997 101.076 42.5493 100.855 42.9014C100.977 42.5705 101.151 42.237 101.369 41.8768Z" fill="white"/>
<path d="M60.7494 5.8595C60.5999 6.10491 60.406 6.37154 60.1587 6.63777C60.3052 6.38515 60.5051 6.13293 60.7494 5.8595Z" fill="white"/>
<path d="M99.4443 45.1757C99.3387 45.4497 99.1905 45.7487 98.9915 46.0571C99.0943 45.7778 99.248 45.4893 99.4443 45.1757Z" fill="white"/>
<path d="M100.762 42.9233C100.656 43.2019 100.506 43.5041 100.308 43.8184C100.412 43.5359 100.566 43.2414 100.762 42.9233Z" fill="white"/>
<path d="M103.465 39.0815C103.308 39.2234 103.094 39.3506 102.834 39.4987C102.995 39.3688 103.202 39.2178 103.465 39.0815Z" fill="white"/>
<path d="M65.212 0.523071C65.1079 0.712733 64.9591 0.919476 64.7598 1.13248C64.8619 0.93921 65.0146 0.739681 65.212 0.523071Z" fill="white"/>
<path d="M102.415 40.1013C102.338 40.3203 102.217 40.5627 102.047 40.8221C102.122 40.601 102.247 40.3629 102.415 40.1013Z" fill="white"/>
<path d="M62.1 4.25568C61.9968 4.4407 61.8505 4.64351 61.655 4.85233C61.7562 4.66338 61.9065 4.46842 62.1 4.25568Z" fill="white"/>
<path d="M35.7871 56.7075C35.9043 56.8398 36.0272 57.0198 36.1484 57.2494C36.0287 57.1178 35.9108 56.9365 35.7871 56.7075Z" fill="white"/>
<path d="M61.3516 5.1377C61.2979 5.28114 61.2003 5.43922 61.0496 5.59812C61.1002 5.45007 61.204 5.3012 61.3516 5.1377Z" fill="white"/>
<path d="M99.7661 44.6154C99.7316 44.7695 99.6543 44.9455 99.5298 45.1396C99.5628 44.9843 99.6431 44.8108 99.7661 44.6154Z" fill="white"/>
<path d="M67.1801 3.17617C67.0966 3.09592 67.0143 2.96936 66.9412 2.79303C67.0272 2.87212 67.1042 3.00099 67.1801 3.17617Z" fill="white"/>
<path d="M68.8334 6.44344C68.744 6.35994 68.6547 6.22797 68.5754 6.04309C68.6681 6.12511 68.7508 6.26005 68.8334 6.44344Z" fill="white"/>
<path d="M101.851 41.0425C101.835 41.1609 101.78 41.2984 101.678 41.4462C101.692 41.3248 101.751 41.1933 101.851 41.0425Z" fill="white"/>
<path d="M107.595 40.7146C107.626 40.5927 107.699 40.4512 107.823 40.2975C107.795 40.4219 107.717 40.5584 107.595 40.7146Z" fill="white"/>
<path d="M97.6222 48.2711C97.6037 48.3913 97.546 48.5379 97.4399 48.7017C97.4554 48.5785 97.5192 48.438 97.6222 48.2711Z" fill="white"/>
<path d="M66.3012 1.38691C66.2097 1.31031 66.1201 1.18726 66.0403 1.01379C66.1344 1.08907 66.2188 1.21476 66.3012 1.38691Z" fill="white"/>
<path d="M69.2811 7.33272C69.1899 7.25232 69.1006 7.12398 69.0181 6.94653C69.1109 7.02655 69.197 7.15567 69.2811 7.33272Z" fill="white"/>
<path d="M68.238 5.25415C68.1482 5.17512 68.0557 5.04895 67.9719 4.87073C68.0656 4.94811 68.1505 5.07756 68.238 5.25415Z" fill="white"/>
<path d="M69.5759 7.93161C69.4882 7.84608 69.4018 7.71161 69.3245 7.52399C69.4147 7.60812 69.496 7.7454 69.5759 7.93161Z" fill="white"/>
<path d="M95.8541 51.3981C95.8525 51.4837 95.8147 51.5848 95.7356 51.6913C95.7355 51.6023 95.7767 51.5081 95.8541 51.3981Z" fill="white"/>
<path d="M67.9288 4.66233C67.8511 4.61114 67.7734 4.51306 67.707 4.36426C67.7884 4.41417 67.8586 4.5148 67.9288 4.66233Z" fill="white"/>
<path d="M107.908 40.2779C107.914 40.188 107.963 40.0831 108.057 39.9673C108.051 40.0586 108.001 40.1607 107.908 40.2779Z" fill="white"/>
<path d="M67.4881 3.7674C67.4071 3.71738 67.3285 3.61983 67.261 3.47156C67.3449 3.52052 67.4177 3.62019 67.4881 3.7674Z" fill="white"/>
<path d="M64.1901 1.7312C64.1748 1.82019 64.1166 1.91937 64.0127 2.02621C64.027 1.93638 64.087 1.83888 64.1901 1.7312Z" fill="white"/>
<path d="M63.9647 33.4892C63.9576 33.3679 63.9786 33.2065 64.0336 33.0085C64.0426 33.1311 64.0177 33.2901 63.9647 33.4892Z" fill="white"/>
<path d="M52.2512 60.3694C52.3061 60.2998 52.4069 60.235 52.5549 60.1755C52.5005 60.2452 52.3988 60.3098 52.2512 60.3694Z" fill="white"/>
<path d="M67.6948 4.20473C67.6364 4.1771 67.5811 4.10134 67.5303 3.97656C67.5891 4.0039 67.6435 4.08025 67.6948 4.20473Z" fill="white"/>
<path d="M107.504 68.4049C107.512 68.4547 107.502 68.494 107.492 68.5334C107.476 68.5083 107.46 68.4833 107.453 68.4443C107.462 68.4304 107.485 68.3945 107.504 68.4049Z" fill="white"/>
<path d="M96.328 50.5377C96.3405 50.6013 96.3118 50.6837 96.2421 50.7857C96.2296 50.7224 96.2583 50.6395 96.328 50.5377Z" fill="white"/>
<path d="M96.0174 51.1052C96.0294 51.1677 96.0029 51.2557 95.9327 51.3644C95.919 51.3003 95.9489 51.2155 96.0174 51.1052Z" fill="white"/>
<path d="M102.75 39.5547C102.755 39.6092 102.725 39.688 102.656 39.7874C102.649 39.7317 102.682 39.6554 102.75 39.5547Z" fill="white"/>
<path d="M59.8752 6.91931C59.8897 6.95233 59.865 6.99851 59.8025 7.0591C59.7884 7.0265 59.8122 6.97949 59.8752 6.91931Z" fill="white"/>
<path d="M62.4303 3.83252C62.4661 3.87642 62.4469 3.91293 62.3788 3.95017C62.3285 3.90609 62.3436 3.86417 62.4303 3.83252Z" fill="white"/>
<path d="M69.8812 8.52872C69.8436 8.53063 69.8094 8.49073 69.7751 8.41032C69.8116 8.40885 69.8481 8.44787 69.8812 8.52872Z" fill="white"/>
<path d="M69.7286 8.23292C69.6906 8.23613 69.656 8.19874 69.6211 8.12198C69.6579 8.11917 69.695 8.15574 69.7286 8.23292Z" fill="white"/>
<path d="M62.2512 4.08478C62.2662 4.11822 62.2402 4.16369 62.1776 4.2257C62.164 4.19376 62.187 4.14528 62.2512 4.08478Z" fill="white"/>
<path d="M59.7317 7.07727C59.7481 7.111 59.7258 7.15471 59.6689 7.21343C59.6539 7.18137 59.6735 7.13432 59.7317 7.07727Z" fill="white"/>
<path d="M68.5423 5.85216C68.5043 5.8543 68.4696 5.81471 68.4348 5.73455C68.4717 5.73281 68.5087 5.77162 68.5423 5.85216Z" fill="white"/>
<path d="M61.5018 4.96899C61.5179 5.00439 61.4931 5.05331 61.4283 5.11673C61.4124 5.08166 61.4366 5.03209 61.5018 4.96899Z" fill="white"/>
<path d="M68.3907 5.55407C68.3545 5.55385 68.3206 5.51151 68.2886 5.42737C68.3246 5.42769 68.3588 5.46982 68.3907 5.55407Z" fill="white"/>
<path d="M68.9808 6.74477C68.944 6.74578 68.9112 6.70632 68.8801 6.62727C68.9161 6.62655 68.9504 6.66543 68.9808 6.74477Z" fill="white"/>
<path d="M106.867 41.7969C106.847 41.7636 106.868 41.7095 106.928 41.634C106.947 41.6672 106.926 41.7217 106.867 41.7969Z" fill="white"/>
<path d="M52.6747 60.176C52.6534 60.1245 52.6848 60.0904 52.7648 60.0624C52.771 60.0975 52.7424 60.1391 52.6747 60.176Z" fill="white"/>
<path d="M38.3523 59.6511C38.3852 59.634 38.4301 59.6542 38.4904 59.7094C38.4586 59.7258 38.4115 59.7071 38.3523 59.6511Z" fill="white"/>
<path d="M38.1868 59.5224C38.2213 59.5037 38.2682 59.5241 38.3303 59.5812C38.2967 59.5991 38.2479 59.5803 38.1868 59.5224Z" fill="white"/>
<path d="M96.171 50.8101C96.2157 50.8485 96.2011 50.8934 96.1324 50.9499C96.1122 50.9206 96.1233 50.8723 96.171 50.8101Z" fill="white"/>
<path d="M97.3591 48.728C97.4038 48.7661 97.3891 48.8109 97.32 48.8671C97.3003 48.8382 97.3117 48.7902 97.3591 48.728Z" fill="white"/>
<path d="M98.8505 46.1862C98.8722 46.216 98.8582 46.2653 98.8113 46.3365C98.7905 46.3076 98.8026 46.2566 98.8505 46.1862Z" fill="white"/>
<path d="M99.8865 44.4116C99.9084 44.4416 99.8951 44.4889 99.8502 44.557C99.8294 44.5281 99.8404 44.4784 99.8865 44.4116Z" fill="white"/>
<path d="M100.004 44.2082C100.026 44.2405 100.01 44.2984 99.9546 44.3809C99.9319 44.3483 99.9488 44.291 100.004 44.2082Z" fill="white"/>
<path d="M100.176 43.9409C100.196 43.9734 100.176 44.026 100.119 44.1009C100.1 44.0692 100.118 44.0152 100.176 43.9409Z" fill="white"/>
<path d="M105.793 43.3803C105.752 43.3415 105.769 43.2992 105.838 43.2496C105.856 43.2791 105.842 43.3239 105.793 43.3803Z" fill="white"/>
<path d="M105.965 43.114C105.945 43.08 105.966 43.0302 106.024 42.96C106.042 42.9925 106.024 43.0453 105.965 43.114Z" fill="white"/>
<path d="M70.0223 8.82811C69.9856 8.82873 69.9529 8.78829 69.9219 8.70777C69.9578 8.70747 69.992 8.74725 70.0223 8.82811Z" fill="white"/>
<path d="M106.998 41.6093C106.979 41.5769 106.999 41.5321 107.051 41.4692C107.069 41.4997 107.053 41.5483 106.998 41.6093Z" fill="white"/>
<path d="M107.167 41.3505C107.15 41.3172 107.172 41.2641 107.234 41.1924C107.252 41.2262 107.229 41.2785 107.167 41.3505Z" fill="white"/>
<path d="M107.304 41.169C107.284 41.1366 107.3 41.0894 107.351 41.0231C107.37 41.0541 107.355 41.1041 107.304 41.169Z" fill="white"/>
<path d="M107.426 40.9943C107.389 40.9522 107.408 40.9127 107.477 40.868C107.493 40.8983 107.479 40.9431 107.426 40.9943Z" fill="white"/>
<path d="M102.584 39.8142C102.624 39.853 102.607 39.895 102.54 39.9454C102.522 39.9163 102.535 39.8708 102.584 39.8142Z" fill="white"/>
<path d="M64.4761 1.39618C64.4929 1.43108 64.4692 1.48025 64.4062 1.54487C64.3898 1.51036 64.4128 1.46041 64.4761 1.39618Z" fill="white"/>
<path d="M64.3341 1.56458C64.3509 1.59888 64.3295 1.64347 64.2726 1.7025C64.2568 1.66958 64.2763 1.62222 64.3341 1.56458Z" fill="white"/>
<path d="M40.9955 13.0545C41.0181 13.0999 40.992 13.1314 40.9299 13.1703C40.9198 13.1388 40.9374 13.0932 40.9955 13.0545Z" fill="white"/>
<path d="M115.198 38.3251L106.793 53.4254H110.066L107.537 68.6L115.942 53.4254H112.52L115.198 38.3251Z" fill="#F4C927"/>
</svg>
