<svg width="136" height="57" viewBox="0 0 136 57" fill="none" xmlns="http://www.w3.org/2000/svg">
<path d="M49.6403 4.76723C49.6761 4.71265 49.7119 4.65808 49.8201 4.58695C49.9722 4.4413 50.0519 4.31222 50.1316 4.18314C50.1316 4.18314 50.1369 4.19367 50.1641 4.17995C50.2114 4.12629 50.2317 4.08635 50.2519 4.0464C50.2519 4.0464 50.2616 3.99625 50.3226 3.97673C50.5031 3.7916 50.6226 3.626 50.7421 3.4604C50.7421 3.4604 50.7559 3.47005 50.778 3.4535C50.8213 3.39983 50.8426 3.3627 50.8638 3.32558C50.8638 3.32558 50.8735 3.27318 50.9163 3.245C50.99 3.19508 51.0057 3.16527 51.006 3.12738C51.006 3.12738 51.0055 3.11703 51.0527 3.11199C51.5863 2.71568 52.3056 2.50655 52.2228 1.67041C52.2228 1.67041 52.2218 1.66083 52.2639 1.65454C52.3536 1.56726 52.4011 1.48628 52.4487 1.4053C52.4487 1.4053 52.4538 1.40701 52.4818 1.39269C52.5273 1.34197 52.5448 1.30556 52.5623 1.26915C52.5623 1.26915 52.5714 1.28156 52.5968 1.2652C52.6415 1.20869 52.6608 1.16854 52.6801 1.12839C52.7136 1.07336 52.7471 1.01833 52.8503 0.941472C53.0415 0.750835 53.163 0.582021 53.2845 0.413208C53.2845 0.413208 53.3055 0.433483 53.335 0.438231C53.5541 0.558425 53.7437 0.67387 53.9333 0.789315C53.9333 0.789315 53.9149 0.796346 53.9156 0.83268C53.9894 0.969491 54.0625 1.06996 54.1357 1.17044C54.1357 1.17044 54.1732 1.20707 54.1671 1.27974C54.3305 1.6493 54.4999 1.9462 54.6694 2.2431C54.6694 2.2431 54.6474 2.25542 54.65 2.28834C54.7197 2.4246 54.7869 2.52794 54.8541 2.63128C54.8778 2.66455 54.9015 2.69783 54.9186 2.80361C54.9762 2.95577 55.0404 3.03542 55.1045 3.11508C55.1045 3.11508 55.1422 3.15339 55.1397 3.22025C55.1823 3.34897 55.2275 3.41083 55.2726 3.47269C55.2726 3.47269 55.302 3.48932 55.2891 3.54718C55.3396 3.68512 55.4029 3.76521 55.4663 3.8453C55.4663 3.8453 55.5059 3.88124 55.5002 3.95045C55.57 4.12267 55.6456 4.2257 55.7211 4.32872C55.7211 4.32872 55.7557 4.35469 55.7571 4.41027C55.7861 4.50041 55.8138 4.53498 55.8415 4.56955C55.8415 4.56955 55.877 4.60159 55.8783 4.6586C55.9079 4.74794 55.9362 4.78027 55.9645 4.8126C55.9645 4.8126 56.0009 4.84349 55.9936 4.91055C56.0591 5.08537 56.132 5.19312 56.2049 5.30087C56.2049 5.30087 56.2415 5.33149 56.2416 5.38763C56.2685 5.47598 56.2953 5.5082 56.3221 5.54042C56.3221 5.54042 56.3589 5.57889 56.3546 5.64557C56.4232 5.81704 56.4962 5.92183 56.5691 6.02662C56.5691 6.02662 56.6067 6.05409 56.6026 6.12056C56.669 6.29682 56.7395 6.40662 56.81 6.51642C56.81 6.51642 56.8457 6.55049 56.8471 6.60729C56.8766 6.69462 56.9049 6.72515 56.9331 6.75568C56.9331 6.75568 56.9709 6.78598 56.9724 6.84321C57.0018 6.93302 57.0298 6.96561 57.0578 6.99819C57.0578 6.99819 57.0934 7.02987 57.0929 7.0864C57.1191 7.17595 57.1458 7.20897 57.1724 7.242C57.1724 7.242 57.2105 7.27609 57.2046 7.34925C57.1046 8.11228 56.9738 8.15284 55.7497 7.82226C55.6409 8.41331 55.5397 8.99632 55.4258 9.57685C55.0454 11.5145 54.6456 13.4486 54.2827 15.3895C54.0434 16.6694 53.8711 17.9618 53.6389 19.2431C53.3664 20.7469 53.0558 22.2437 52.7764 23.7462C52.7335 23.9766 52.7695 24.2216 52.769 24.4599C52.7608 24.5328 52.7526 24.6058 52.6931 24.7351C52.2031 25.3652 52.251 26.0176 52.3371 26.6761C52.337 26.7317 52.3369 26.7872 52.2975 26.9126C52.241 27.1143 52.2238 27.246 52.2067 27.3778C52.2067 27.3778 52.2191 27.3965 52.1805 27.4283C52.0866 27.847 52.0313 28.2339 51.9761 28.6209C51.9747 28.675 51.9734 28.7292 51.9205 28.837C51.8277 28.957 51.7617 29.0191 51.749 29.0906C51.5338 30.3016 51.3185 31.5127 51.1182 32.7262C51.0235 33.3004 50.9603 33.8797 50.8829 34.4567C50.1406 38.8249 49.1085 43.0841 46.192 46.6094C45.3621 47.6126 44.3682 48.4319 43.1268 49.0352C43.0192 49.066 42.9935 49.0938 42.979 49.1319C42.979 49.1319 42.9692 49.1497 42.9218 49.1404C42.7921 49.184 42.7098 49.2369 42.6275 49.2898C42.6275 49.2898 42.6258 49.2771 42.5822 49.2745C42.2311 49.3434 41.9092 49.5084 41.6197 49.4637C41.2286 49.4032 41.1038 49.5443 41.0435 49.8676C41.0435 49.8676 41.0282 49.8864 40.9673 49.8744C39.4459 49.9518 37.9863 50.0687 36.5245 50.1192C35.8053 50.144 35.0819 50.0458 34.3605 50.0033C34.3396 50.002 34.3187 50.0007 34.2585 49.9495C34.0661 49.784 33.9294 49.6214 33.7571 49.5617C33.285 49.3985 32.7942 49.29 32.3181 49.1372C32.0204 49.0416 31.736 48.9051 31.4456 48.787C31.4456 48.787 31.4412 48.788 31.4287 48.7571C31.3796 48.7098 31.3429 48.6933 31.3062 48.6768C31.3062 48.6768 31.3161 48.668 31.3009 48.6441C31.2474 48.6035 31.2092 48.5868 31.1709 48.5701C31.1709 48.5701 31.1853 48.5583 31.1735 48.5252C30.9183 48.3035 30.6748 48.1148 30.4313 47.9262C30.411 47.9151 30.3907 47.9041 30.3573 47.8174C30.1064 47.4815 29.8687 47.2212 29.6309 46.961C29.598 46.9264 29.5651 46.8919 29.5251 46.7815C29.4176 46.5587 29.3173 46.4117 29.2169 46.2648C29.2169 46.2648 29.2438 46.2457 29.2366 46.2089C29.1736 45.9377 29.1208 45.7026 29.0611 45.4692C28.8043 44.4638 28.378 43.4673 28.3266 42.4518C28.2499 40.9336 28.4388 39.4022 28.5095 37.8762C28.5285 37.4659 28.529 37.0547 28.5379 36.644C28.5356 36.5874 28.5333 36.5309 28.5754 36.4028C28.8414 35.1939 29.0754 34.0586 29.2799 32.918C29.4176 32.1506 29.5137 31.3756 29.6284 30.6041C29.6284 30.6041 29.6191 30.5793 29.661 30.5413C29.9533 29.4574 30.2398 28.4185 30.4464 27.3639C30.8331 25.3899 31.1639 23.4051 31.536 21.4282C31.8853 19.5722 32.273 17.7232 32.6118 15.8654C32.7207 15.2684 32.7278 14.653 32.7814 14.046C32.7823 13.9919 32.7831 13.9379 32.8378 13.828C33.0545 12.8061 33.2173 11.8399 33.3802 10.8738C33.3802 10.8738 33.3743 10.8172 33.4088 10.7799C33.4714 10.7223 33.4928 10.6965 33.5074 10.6652C35.7373 10.6583 37.9671 10.6513 40.2562 10.6953C40.3239 11.1062 40.3821 11.4733 40.3312 11.8246C40.1929 12.7792 40.0083 13.7271 39.8421 14.6777C39.3314 17.0873 38.8241 19.4977 38.3091 21.9064C37.2154 27.0216 36.1001 32.1323 35.0365 37.2538C34.8241 38.2763 34.7549 39.3362 34.7049 40.3829C34.6329 41.8882 35.3327 42.9926 36.6022 43.5406C38.02 44.1527 39.6659 43.8943 40.669 42.9046C41.5452 42.04 42.069 40.957 42.3541 39.7994C42.9381 37.4274 43.4625 35.0387 43.9372 32.6422C44.9184 27.6886 45.8499 22.7252 46.8041 17.7663C47.3843 14.7507 47.9696 11.736 48.5489 8.72014C48.5785 8.56613 48.5729 8.40535 48.5897 8.15866C48.0251 8.15866 47.4928 8.15866 46.7766 8.15866C47.4717 7.32674 48.0484 6.6365 48.6876 5.91205C48.7684 5.84214 48.7865 5.80645 48.8047 5.77075C48.8047 5.77075 48.8097 5.77994 48.8358 5.76612C48.8821 5.71459 48.9022 5.67689 48.9223 5.63918C48.9555 5.57968 48.9887 5.52018 49.0935 5.44052C49.3236 5.20265 49.482 4.98494 49.6403 4.76723Z" fill="#CA262E"/>
<path d="M21.5056 45.7061C21.7904 47.1008 22.0645 48.4451 22.349 49.8402C19.7723 49.8402 17.2537 49.8402 14.7045 49.8402C13.8803 44.3649 13.0595 38.9125 12.218 33.3216C11.9857 33.6199 11.8154 33.8265 11.6584 34.0427C11.1951 34.6812 10.7855 35.3664 10.265 35.9537C9.58286 36.7232 9.51282 37.6717 9.33091 38.5927C8.59112 42.3382 7.86337 46.086 7.12759 49.8513C4.7649 49.8513 2.42408 49.8513 0 49.8513C2.49972 36.782 4.99151 23.7542 7.49055 10.6884C9.85956 10.6884 12.1935 10.6884 14.6196 10.6884C13.4654 16.6783 12.3192 22.6264 11.1731 28.5744C11.2245 28.5838 11.2759 28.5932 11.3273 28.6026C14.8125 22.6249 18.2978 16.6472 21.78 10.6748C24.4035 10.6748 27.008 10.6748 29.7093 10.6748C29.5686 10.9006 29.4733 11.0671 29.3654 11.2249C25.6452 16.6681 21.9192 22.1073 18.2165 27.5623C18.0371 27.8266 17.944 28.2517 18.0064 28.5625C19.1515 34.2639 20.3264 39.9592 21.5056 45.7061Z" fill="#CA262E"/>
<path d="M62.258 30.2576C61.5373 25.7364 60.8263 21.2672 60.115 16.7981C59.7947 14.7855 59.4738 12.773 59.1436 10.6997C61.7584 10.6997 64.3311 10.6997 66.9651 10.6997C67.2218 13.6093 67.5245 16.5226 67.7234 19.4429C67.9211 22.3437 68.0144 25.2515 68.1607 28.3089C68.39 27.7015 68.5848 27.2131 68.7598 26.7177C70.4195 22.0199 72.6829 17.5861 74.7301 13.0578C75.0464 12.3583 75.3556 11.6544 75.7065 10.9723C75.7844 10.8207 76.024 10.6612 76.1905 10.6598C78.5777 10.6397 80.9651 10.6461 83.4882 10.6461C83.1051 11.3641 82.767 12.0115 82.4166 12.6522C80.0702 16.9424 77.7219 21.2316 75.3728 25.5204C73.723 28.5324 72.0487 31.5314 70.4397 34.565C70.1378 35.1341 70.0577 35.8329 69.935 36.4831C69.1148 40.8301 68.3111 45.1803 67.4999 49.529C67.4817 49.6265 67.4386 49.7193 67.3971 49.8446C64.9954 49.8446 62.5995 49.8446 60.1419 49.8446C60.4393 48.2578 60.7252 46.7122 61.0193 45.1681C61.6392 41.9138 62.3185 38.6692 62.8501 35.4005C62.9969 34.4979 62.7267 33.5226 62.6152 32.5845C62.5247 31.8232 62.3853 31.0677 62.258 30.2576Z" fill="#CA262E"/>
<path d="M80.7441 37.6967C80.7441 37.6967 80.7493 37.6465 80.8105 37.623C80.9926 37.3553 81.1136 37.1111 81.2346 36.8669C81.2346 36.8669 81.2425 36.8758 81.2753 36.8595C81.3713 36.6995 81.4343 36.5558 81.4974 36.412C81.4974 36.412 81.4946 36.4015 81.5259 36.3834C81.5679 36.3267 81.5787 36.2881 81.5896 36.2495C81.5896 36.2495 81.5948 36.2588 81.6217 36.2386C81.6618 36.1712 81.675 36.1239 81.6881 36.0766C81.6881 36.0766 81.6881 36.0419 81.7345 36.0168C81.7971 35.9487 81.8135 35.9058 81.8298 35.8628C81.8298 35.8628 81.8322 35.8186 81.8886 35.794C82.067 35.5227 82.189 35.2759 82.311 35.0291C82.311 35.0291 82.3366 35.0489 82.3658 35.0387C82.5319 34.743 82.6689 34.4575 82.8058 34.1721C82.8503 34.0842 82.8947 33.9963 83.0006 33.8712C83.1071 33.7216 83.1522 33.6092 83.1974 33.4969C83.1999 33.4554 83.2129 33.4175 83.301 33.351C83.4642 33.1208 83.5628 32.9229 83.6614 32.7249C83.6614 32.7249 83.6668 32.6711 83.7096 32.6372C83.7822 32.5756 83.796 32.5413 83.7936 32.5006C83.7936 32.5006 83.7979 32.5076 83.826 32.4893C83.8786 32.4066 83.9031 32.3423 83.9276 32.2779C83.9276 32.2779 83.9221 32.2716 83.964 32.2533C84.1802 32.1311 84.3544 32.0273 84.5287 31.9235C84.5836 31.9178 84.6385 31.9122 84.7752 31.9436C85.7992 31.9949 86.7413 32.0205 87.6834 32.0179C88.0677 32.0168 88.3087 32.1266 88.314 32.5478C88.314 32.5478 88.3075 32.5959 88.2511 32.6197C88.1553 32.7292 88.116 32.8149 88.0766 32.9006C88.0766 32.9006 88.0676 32.8876 88.0342 32.9009C87.9405 33.0298 87.8801 33.1454 87.8197 33.2609C87.8197 33.2609 87.8158 33.3148 87.7747 33.3484C87.7026 33.4066 87.6868 33.4388 87.6863 33.4785C87.6863 33.4785 87.6865 33.4814 87.6576 33.4969C87.6148 33.5509 87.6009 33.5895 87.5871 33.628C87.5871 33.628 87.5827 33.6178 87.555 33.634C87.5094 33.6935 87.4916 33.7369 87.4737 33.7803C87.4737 33.7803 87.4716 33.8217 87.428 33.8487C87.3684 33.9124 87.3524 33.9489 87.3365 33.9855C87.3365 33.9855 87.332 33.9759 87.305 33.9944C87.2614 34.0572 87.2447 34.1014 87.2281 34.1456C87.2281 34.1456 87.2201 34.1877 87.1607 34.2053C86.9455 34.4855 86.7898 34.748 86.634 35.0105C86.634 35.0105 86.6342 35.046 86.5885 35.0705C86.5253 35.1356 86.5079 35.1763 86.4905 35.2169C86.4905 35.2169 86.4841 35.2679 86.4392 35.2976C86.364 35.3552 86.3505 35.3898 86.3536 35.4309C84.957 37.4874 83.5492 39.5365 82.1773 41.6093C82.0005 41.8764 81.8905 42.2898 81.9505 42.5961C82.7194 46.5208 83.5252 50.4384 84.3202 54.3581C84.3554 54.5317 84.3775 54.7079 84.4128 54.9275C82.9076 54.9275 81.4582 54.9275 79.936 54.9275C79.4594 51.764 78.9826 48.5999 78.4761 45.2384C77.8596 46.2007 77.0722 46.8245 76.8764 47.8515C76.43 50.1929 75.9666 52.5309 75.5016 54.9137C74.1087 54.9137 72.727 54.9137 71.2998 54.9137C72.7667 47.2497 74.2284 39.613 75.6966 31.9422C77.0868 31.9422 78.4546 31.9422 79.8915 31.9422C79.6351 33.2835 79.3842 34.6042 79.1301 35.9244C78.7561 37.8677 78.3773 39.81 78.0094 41.7545C77.9819 41.8995 78.025 42.0579 78.1203 42.2068C78.2361 42.1208 78.267 42.0381 78.2978 41.9555C78.2978 41.9555 78.3317 41.9764 78.3499 41.9502C78.3897 41.8521 78.4113 41.7802 78.4329 41.7084C78.4329 41.7084 78.4348 41.6563 78.4779 41.6216C78.5516 41.5562 78.5636 41.5196 78.5569 41.4768C78.5569 41.4768 78.5628 41.4865 78.5908 41.4694C78.6421 41.3849 78.6655 41.3176 78.6889 41.2503C78.6889 41.2503 78.6953 41.253 78.7309 41.2337C78.9786 40.8089 79.1906 40.4035 79.4027 39.9981C79.4027 39.9981 79.4051 39.9502 79.4479 39.9182C79.5218 39.8558 79.5337 39.8192 79.5266 39.7764C79.5266 39.7764 79.5413 39.7894 79.572 39.771C79.6498 39.6329 79.6969 39.5132 79.744 39.3935C79.744 39.3935 79.7863 39.41 79.8102 39.4033C80.3505 39.0411 80.671 38.5819 80.6135 37.9229C80.6135 37.9229 80.6189 37.8784 80.6643 37.8479C80.7211 37.7771 80.7326 37.7369 80.7441 37.6967Z" fill="#CA262E"/>
<path d="M113.805 34.8006C114.165 33.9157 114.499 33.07 114.86 32.2356C114.918 32.0997 115.091 31.9205 115.214 31.9189C116.786 31.8975 118.359 31.9047 119.988 31.9047C120.057 39.6074 120.126 47.2462 120.195 54.9233C118.784 54.9233 117.441 54.9233 116.074 54.9233C116.074 53.1564 116.074 51.4071 116.074 49.5772C114.74 49.5772 113.43 49.558 112.122 49.6017C111.96 49.6071 111.747 49.9225 111.663 50.1359C111.112 51.5481 110.571 52.9653 110.068 54.3955C109.913 54.8371 109.689 54.9797 109.231 54.967C108.081 54.9353 106.929 54.9566 105.638 54.9566C108.378 48.1934 111.083 41.5185 113.805 34.8006ZM116.377 36.2464C115.25 39.6295 114.123 43.0127 112.986 46.4228C114.055 46.4228 115.115 46.4228 116.172 46.4228C116.202 46.3309 116.234 46.276 116.235 46.2201C116.334 42.9465 116.431 39.6728 116.521 36.399C116.523 36.3296 116.443 36.258 116.377 36.2464Z" fill="#CA262E"/>
<path d="M130.552 39.545C129.569 44.6928 128.591 49.7888 127.607 54.9232C126.209 54.9232 124.805 54.9232 123.312 54.9232C124.512 48.6152 125.706 42.3432 126.915 35.9874C125.561 35.9874 124.298 35.9874 122.935 35.9874C123.096 35.1382 123.228 34.3706 123.39 33.6091C123.509 33.0452 123.498 32.2869 123.856 31.9885C124.194 31.7067 124.939 31.9052 125.504 31.9047C128.741 31.902 131.978 31.9029 135.215 31.9026C135.453 31.9026 135.69 31.9026 136 31.9026C135.738 33.284 135.49 34.5877 135.228 35.972C134.112 35.972 133.004 36.0009 131.898 35.9595C131.369 35.9397 131.157 36.0953 131.084 36.6328C130.954 37.5924 130.738 38.5404 130.552 39.545Z" fill="#CA262E"/>
<path d="M97.6553 39.9221C98.1412 37.393 98.6312 34.9178 99.0869 32.4363C99.1596 32.0403 99.2801 31.887 99.6952 31.8948C100.943 31.9184 102.191 31.9033 103.501 31.9033C102.266 38.3672 101.047 44.7466 99.8154 51.1959C101.702 51.1959 103.516 51.1959 105.404 51.1959C105.18 52.407 104.978 53.5509 104.743 54.6877C104.719 54.8005 104.49 54.9486 104.356 54.949C101.241 54.9588 98.1259 54.9505 95.011 54.9433C94.9746 54.9432 94.9382 54.913 94.811 54.8567C95.7539 49.9103 96.7009 44.9421 97.6553 39.9221Z" fill="#CA262E"/>
<path d="M52.791 24.4166C52.7695 24.2216 52.7335 23.9765 52.7764 23.7462C53.0558 22.2436 53.3664 20.7468 53.6389 19.2431C53.8711 17.9617 54.0434 16.6693 54.2827 15.3894C54.6456 13.4485 55.0454 11.5145 55.4258 9.5768C55.5397 8.99628 55.6409 8.41326 55.7497 7.82221C56.9738 8.15279 57.1046 8.11223 57.2069 7.37463C57.3529 7.56455 57.4906 7.80222 57.7039 8.17019C57.1643 8.17019 56.7497 8.18457 56.3366 8.16585C55.9751 8.14947 55.8059 8.26757 55.7348 8.65404C54.7711 13.8957 53.7899 19.1341 52.791 24.4166Z" fill="#CA262E"/>
<path d="M32.7466 14.0763C32.7277 14.6529 32.7206 15.2683 32.6118 15.8653C32.273 17.7231 31.8853 19.572 31.536 21.4281C31.1639 23.405 30.8331 25.3898 30.4464 27.3638C30.2398 28.4184 29.9532 29.4573 29.6704 30.532C29.9678 28.7379 30.2875 26.9132 30.6293 25.0926C31.3171 21.4294 32.0169 17.7685 32.7466 14.0763Z" fill="#CA262E"/>
<path d="M28.5184 36.6863C28.5291 37.0546 28.5286 37.4658 28.5096 37.8761C28.4388 39.4021 28.2499 40.9335 28.3267 42.4517C28.378 43.4673 28.8044 44.4637 29.0612 45.4691C29.1208 45.7025 29.1736 45.9377 29.2249 46.2203C28.5683 45.2448 28.3277 44.0858 28.1818 42.9127C27.9237 40.8369 28.1539 38.7779 28.5184 36.6863Z" fill="#CA262E"/>
<path d="M34.3916 50.0369C35.0816 50.0458 35.805 50.1439 36.5242 50.1191C37.986 50.0687 39.4456 49.9518 40.9563 49.8687C39.3853 50.4141 37.7152 50.4266 36.0387 50.3108C35.4972 50.2734 34.9614 50.153 34.3916 50.0369Z" fill="#CA262E"/>
<path d="M29.6072 30.6425C29.5134 31.3756 29.4173 32.1505 29.2797 32.918C29.0751 34.0586 28.8411 35.1938 28.5894 36.3626C28.9015 34.4895 29.2439 32.5852 29.6072 30.6425Z" fill="#CA262E"/>
<path d="M50.918 34.4265C50.9601 33.8797 51.0233 33.3003 51.118 32.7262C51.3183 31.5126 51.5336 30.3016 51.7487 29.0906C51.7615 29.019 51.8275 28.957 51.9083 28.8759C51.6163 30.7062 51.2848 32.5512 50.918 34.4265Z" fill="#CA262E"/>
<path d="M39.8721 14.6431C40.0082 13.7271 40.1927 12.7792 40.3311 11.8246C40.382 11.4733 40.3238 11.1062 40.3123 10.7044C40.8223 10.5379 40.7148 10.87 40.6557 11.1457C40.4083 12.3008 40.154 13.4544 39.8721 14.6431Z" fill="#CA262E"/>
<path d="M31.4634 48.8236C31.7361 48.9051 32.0206 49.0416 32.3182 49.1371C32.7943 49.29 33.2851 49.3984 33.7572 49.5617C33.9296 49.6213 34.0663 49.784 34.2287 49.94C33.3191 49.607 32.4001 49.2336 31.4634 48.8236Z" fill="#CA262E"/>
<path d="M88.3514 32.5305C88.3085 32.1266 88.0674 32.0169 87.6831 32.0179C86.741 32.0205 85.7989 31.9949 84.8154 31.9532C86.0777 31.9257 87.3813 31.9257 88.7755 31.9257C88.6214 32.16 88.5052 32.3365 88.3514 32.5305Z" fill="#CA262E"/>
<path d="M33.3523 10.9111C33.2172 11.8399 33.0544 12.806 32.8501 13.7893C32.9806 12.8538 33.1526 11.9012 33.3523 10.9111Z" fill="#CA262E"/>
<path d="M52.1845 1.68433C52.3053 2.50654 51.586 2.71567 51.0576 3.11209C51.3926 2.64425 51.7696 2.17126 52.1845 1.68433Z" fill="#CA262E"/>
<path d="M80.5783 37.946C80.6708 38.5819 80.3503 39.0411 79.7896 39.3935C80.0112 38.9167 80.2772 38.4429 80.5783 37.946Z" fill="#CA262E"/>
<path d="M52.3664 26.6413C52.2509 26.0176 52.203 25.3652 52.6702 24.7646C52.5978 25.3607 52.4968 25.9836 52.3664 26.6413Z" fill="#CA262E"/>
<path d="M41.0908 49.8716C41.1039 49.5443 41.2287 49.4032 41.6198 49.4636C41.9093 49.5084 42.2313 49.3434 42.5862 49.2795C42.1351 49.4834 41.6365 49.6795 41.0908 49.8716Z" fill="#CA262E"/>
<path d="M79.3683 40.0209C79.1906 40.4036 78.9785 40.809 78.7285 41.2312C78.905 40.8465 79.1194 40.445 79.3683 40.0209Z" fill="#CA262E"/>
<path d="M29.6348 47.0023C29.8687 47.2212 30.1065 47.4814 30.3411 47.7867C30.1049 47.569 29.8717 47.3064 29.6348 47.0023Z" fill="#CA262E"/>
<path d="M52.0078 28.5882C52.031 28.2339 52.0863 27.8469 52.1715 27.4353C52.1476 27.7922 52.0937 28.1739 52.0078 28.5882Z" fill="#CA262E"/>
<path d="M53.933 0.746012C53.7435 0.673839 53.554 0.558394 53.3232 0.429353C53.364 0.300692 53.4459 0.185627 53.5781 0C53.7269 0.294844 53.8299 0.498794 53.933 0.746012Z" fill="#CA262E"/>
<path d="M30.437 47.9629C30.6746 48.1148 30.918 48.3034 31.1689 48.5334C30.9318 48.383 30.6874 48.1913 30.437 47.9629Z" fill="#CA262E"/>
<path d="M86.6694 34.9899C86.7894 34.748 86.9452 34.4855 87.1411 34.2147C87.0226 34.4608 86.8639 34.715 86.6694 34.9899Z" fill="#CA262E"/>
<path d="M54.6648 2.19947C54.4998 1.94606 54.3303 1.64917 54.168 1.30579C54.3369 1.55819 54.4986 1.85709 54.6648 2.19947Z" fill="#CA262E"/>
<path d="M82.7708 34.1938C82.6686 34.4575 82.5317 34.743 82.3516 35.0305C82.4509 34.7602 82.5935 34.4879 82.7708 34.1938Z" fill="#CA262E"/>
<path d="M49.6039 4.78442C49.4819 4.98481 49.3235 5.20252 49.1216 5.41991C49.2412 5.21364 49.4044 5.00769 49.6039 4.78442Z" fill="#CA262E"/>
<path d="M81.1998 36.8875C81.1136 37.1112 80.9926 37.3554 80.8301 37.6072C80.914 37.3792 81.0396 37.1435 81.1998 36.8875Z" fill="#CA262E"/>
<path d="M82.2754 35.0483C82.1886 35.2759 82.0666 35.5226 81.9048 35.7792C81.99 35.5486 82.1151 35.3081 82.2754 35.0483Z" fill="#CA262E"/>
<path d="M84.4828 31.9115C84.3542 32.0273 84.1799 32.1312 83.9678 32.2521C84.099 32.146 84.2681 32.0228 84.4828 31.9115Z" fill="#CA262E"/>
<path d="M53.2482 0.427124C53.1632 0.581989 53.0417 0.750803 52.8789 0.924726C52.9623 0.766916 53.087 0.603993 53.2482 0.427124Z" fill="#CA262E"/>
<path d="M83.6256 32.7441C83.5628 32.9229 83.4642 33.1209 83.3252 33.3327C83.3865 33.1522 83.4882 32.9577 83.6256 32.7441Z" fill="#CA262E"/>
<path d="M50.7066 3.47485C50.6224 3.62593 50.5029 3.79153 50.3433 3.96204C50.4259 3.80776 50.5486 3.64856 50.7066 3.47485Z" fill="#CA262E"/>
<path d="M29.2217 46.3037C29.3174 46.4117 29.4177 46.5587 29.5167 46.7462C29.419 46.6388 29.3226 46.4907 29.2217 46.3037Z" fill="#CA262E"/>
<path d="M50.0958 4.19507C50.0519 4.31219 49.9722 4.44127 49.8491 4.57102C49.8905 4.45013 49.9753 4.32858 50.0958 4.19507Z" fill="#CA262E"/>
<path d="M81.4625 36.4301C81.4343 36.5558 81.3712 36.6996 81.2695 36.8581C81.2965 36.7313 81.3621 36.5896 81.4625 36.4301Z" fill="#CA262E"/>
<path d="M54.8547 2.59336C54.7866 2.52783 54.7194 2.4245 54.6597 2.28052C54.7299 2.3451 54.7928 2.45033 54.8547 2.59336Z" fill="#CA262E"/>
<path d="M56.2048 5.26135C56.1318 5.19316 56.0589 5.08541 55.9941 4.93445C56.0698 5.00142 56.1373 5.1116 56.2048 5.26135Z" fill="#CA262E"/>
<path d="M83.1646 33.5126C83.1521 33.6092 83.1069 33.7215 83.0239 33.8421C83.0347 33.743 83.0834 33.6356 83.1646 33.5126Z" fill="#CA262E"/>
<path d="M87.8555 33.245C87.88 33.1455 87.9404 33.0299 88.0413 32.9044C88.0183 33.006 87.9548 33.1175 87.8555 33.245Z" fill="#CA262E"/>
<path d="M79.7118 39.415C79.6967 39.5132 79.6496 39.6329 79.563 39.7667C79.5756 39.666 79.6277 39.5513 79.7118 39.415Z" fill="#CA262E"/>
<path d="M54.1373 1.13242C54.0626 1.06987 53.9895 0.9694 53.9243 0.827759C54.0012 0.889227 54.07 0.991859 54.1373 1.13242Z" fill="#CA262E"/>
<path d="M56.5703 5.98745C56.4958 5.9218 56.4229 5.81701 56.3555 5.67212C56.4313 5.73745 56.5016 5.84288 56.5703 5.98745Z" fill="#CA262E"/>
<path d="M55.7188 4.29025C55.6454 4.22572 55.5699 4.1227 55.5015 3.97717C55.5779 4.04036 55.6473 4.14605 55.7188 4.29025Z" fill="#CA262E"/>
<path d="M56.8112 6.4764C56.7396 6.40655 56.6691 6.29675 56.606 6.14355C56.6796 6.21225 56.746 6.32434 56.8112 6.4764Z" fill="#CA262E"/>
<path d="M78.2682 41.9684C78.2669 42.0382 78.236 42.1208 78.1714 42.2078C78.1713 42.1351 78.205 42.0581 78.2682 41.9684Z" fill="#CA262E"/>
<path d="M55.4662 3.80698C55.4028 3.76519 55.3394 3.6851 55.2852 3.5636C55.3516 3.60435 55.4089 3.68652 55.4662 3.80698Z" fill="#CA262E"/>
<path d="M88.1104 32.8882C88.1156 32.8148 88.155 32.7292 88.2316 32.6346C88.2274 32.7092 88.1859 32.7925 88.1104 32.8882Z" fill="#CA262E"/>
<path d="M55.1063 3.07628C55.0402 3.03544 54.976 2.95579 54.9209 2.83472C54.9894 2.87469 55.0488 2.95608 55.1063 3.07628Z" fill="#CA262E"/>
<path d="M52.4134 1.41357C52.4009 1.48624 52.3534 1.56722 52.2686 1.65446C52.2803 1.58111 52.3293 1.5015 52.4134 1.41357Z" fill="#CA262E"/>
<path d="M52.2296 27.3451C52.2238 27.246 52.241 27.1142 52.2858 26.9526C52.2932 27.0527 52.2729 27.1826 52.2296 27.3451Z" fill="#CA262E"/>
<path d="M42.665 49.2937C42.7099 49.2369 42.7921 49.184 42.913 49.1354C42.8686 49.1923 42.7855 49.245 42.665 49.2937Z" fill="#CA262E"/>
<path d="M55.275 3.43326C55.2273 3.41069 55.1821 3.34883 55.1406 3.24695C55.1887 3.26927 55.2331 3.33161 55.275 3.43326Z" fill="#CA262E"/>
<path d="M87.7811 55.855C87.7881 55.8959 87.7797 55.9283 87.7713 55.9607C87.7581 55.9401 87.7449 55.9195 87.7393 55.8875C87.7468 55.876 87.7658 55.8465 87.7811 55.855Z" fill="#CA262E"/>
<path d="M78.655 41.2659C78.6652 41.3177 78.6418 41.3851 78.5848 41.4684C78.5747 41.4167 78.5981 41.349 78.655 41.2659Z" fill="#CA262E"/>
<path d="M78.4014 41.7292C78.4112 41.7803 78.3896 41.8521 78.3322 41.9409C78.321 41.8885 78.3455 41.8193 78.4014 41.7292Z" fill="#CA262E"/>
<path d="M83.8988 32.2979C83.9029 32.3423 83.8784 32.4067 83.8219 32.4879C83.8168 32.4424 83.8435 32.38 83.8988 32.2979Z" fill="#CA262E"/>
<path d="M48.8906 5.64978C48.9026 5.67694 48.8823 5.71492 48.8309 5.76477C48.8193 5.73795 48.8388 5.69928 48.8906 5.64978Z" fill="#CA262E"/>
<path d="M50.9771 3.12939C51.0065 3.16551 50.9907 3.19554 50.9347 3.22616C50.8933 3.18991 50.9058 3.15543 50.9771 3.12939Z" fill="#CA262E"/>
<path d="M57.0609 6.96473C57.03 6.96631 57.0018 6.93348 56.9736 6.86734C57.0037 6.86613 57.0336 6.89823 57.0609 6.96473Z" fill="#CA262E"/>
<path d="M56.9366 6.72309C56.9053 6.72574 56.8768 6.69498 56.8481 6.63184C56.8784 6.62953 56.9089 6.65961 56.9366 6.72309Z" fill="#CA262E"/>
<path d="M50.8307 3.33533C50.8431 3.36284 50.8217 3.40024 50.7702 3.45124C50.759 3.42497 50.778 3.38509 50.8307 3.33533Z" fill="#CA262E"/>
<path d="M48.7734 5.77881C48.7869 5.80655 48.7686 5.84251 48.7218 5.89081C48.7094 5.86444 48.7255 5.82573 48.7734 5.77881Z" fill="#CA262E"/>
<path d="M55.9678 4.77916C55.9365 4.78091 55.908 4.74835 55.8794 4.68242C55.9098 4.68098 55.9402 4.71291 55.9678 4.77916Z" fill="#CA262E"/>
<path d="M50.2186 4.05737C50.2319 4.08648 50.2115 4.12672 50.1582 4.17889C50.1451 4.15005 50.165 4.10927 50.2186 4.05737Z" fill="#CA262E"/>
<path d="M55.8438 4.53586C55.814 4.53568 55.7861 4.50085 55.7598 4.43164C55.7894 4.43191 55.8175 4.46656 55.8438 4.53586Z" fill="#CA262E"/>
<path d="M56.3259 5.50804C56.2957 5.50886 56.2687 5.47641 56.2432 5.41138C56.2728 5.4108 56.301 5.44277 56.3259 5.50804Z" fill="#CA262E"/>
<path d="M87.2601 34.1296C87.2444 34.1022 87.2612 34.0576 87.3103 33.9956C87.326 34.0229 87.3094 34.0677 87.2601 34.1296Z" fill="#CA262E"/>
<path d="M43.0107 49.1365C42.9932 49.0941 43.0191 49.0661 43.0848 49.0431C43.0899 49.0719 43.0664 49.1062 43.0107 49.1365Z" fill="#CA262E"/>
<path d="M31.3159 48.7073C31.343 48.6932 31.3799 48.7098 31.4295 48.7552C31.4034 48.7687 31.3646 48.7533 31.3159 48.7073Z" fill="#CA262E"/>
<path d="M31.1807 48.6021C31.2091 48.5867 31.2476 48.6035 31.2987 48.6505C31.2711 48.6652 31.2309 48.6498 31.1807 48.6021Z" fill="#CA262E"/>
<path d="M78.5269 41.4882C78.5637 41.5198 78.5517 41.5567 78.4952 41.6032C78.4786 41.5791 78.4877 41.5394 78.5269 41.4882Z" fill="#CA262E"/>
<path d="M79.4973 39.7881C79.534 39.8194 79.522 39.8563 79.4651 39.9025C79.4489 39.8787 79.4583 39.8393 79.4973 39.7881Z" fill="#CA262E"/>
<path d="M80.7151 37.7126C80.7329 37.7372 80.7214 37.7777 80.6828 37.8363C80.6657 37.8124 80.6757 37.7705 80.7151 37.7126Z" fill="#CA262E"/>
<path d="M81.5611 36.2635C81.5791 36.2883 81.5682 36.3271 81.5312 36.3831C81.5142 36.3594 81.5232 36.3186 81.5611 36.2635Z" fill="#CA262E"/>
<path d="M81.6568 36.0975C81.6749 36.1239 81.6618 36.1712 81.6163 36.2386C81.5979 36.2119 81.6117 36.1652 81.6568 36.0975Z" fill="#CA262E"/>
<path d="M81.7978 35.8793C81.814 35.906 81.7975 35.9492 81.7505 36.0109C81.735 35.9848 81.7501 35.9403 81.7978 35.8793Z" fill="#CA262E"/>
<path d="M86.3835 35.4224C86.3504 35.3904 86.364 35.3556 86.4205 35.3148C86.4355 35.3391 86.4245 35.3759 86.3835 35.4224Z" fill="#CA262E"/>
<path d="M86.5238 35.205C86.5078 35.177 86.5254 35.1361 86.573 35.0784C86.5877 35.1051 86.5725 35.1485 86.5238 35.205Z" fill="#CA262E"/>
<path d="M57.1764 7.20922C57.1462 7.20973 57.1193 7.17646 57.0938 7.11023C57.1233 7.10999 57.1515 7.14271 57.1764 7.20922Z" fill="#CA262E"/>
<path d="M87.3676 33.9763C87.3521 33.9496 87.3682 33.9128 87.4114 33.8611C87.4254 33.8862 87.4123 33.9261 87.3676 33.9763Z" fill="#CA262E"/>
<path d="M87.5058 33.7651C87.4913 33.7376 87.5093 33.6939 87.5607 33.635C87.5755 33.6628 87.5568 33.7058 87.5058 33.7651Z" fill="#CA262E"/>
<path d="M87.6171 33.6168C87.6006 33.5902 87.6145 33.5513 87.6562 33.4968C87.6718 33.5223 87.6597 33.5635 87.6171 33.6168Z" fill="#CA262E"/>
<path d="M87.7171 33.474C87.6863 33.4394 87.7022 33.4069 87.7587 33.3701C87.7721 33.395 87.7603 33.4319 87.7171 33.474Z" fill="#CA262E"/>
<path d="M83.7642 32.5098C83.7966 32.5417 83.7828 32.5762 83.7274 32.6177C83.7128 32.5938 83.7234 32.5563 83.7642 32.5098Z" fill="#CA262E"/>
<path d="M52.6476 1.14001C52.6614 1.16872 52.642 1.20916 52.5902 1.26232C52.5767 1.23393 52.5955 1.19284 52.6476 1.14001Z" fill="#CA262E"/>
<path d="M52.5315 1.27747C52.5453 1.30568 52.5277 1.34236 52.4809 1.39091C52.4679 1.36384 52.484 1.32488 52.5315 1.27747Z" fill="#CA262E"/>
<path d="M33.4746 10.6594C33.4932 10.6967 33.4717 10.7227 33.4207 10.7547C33.4124 10.7288 33.4268 10.6912 33.4746 10.6594Z" fill="#CA262E"/>
<path d="M94.0636 31.2938L87.2002 43.6237H89.8727L87.8076 56.0143L94.671 43.6237H91.877L94.0636 31.2938Z" fill="#F4C927"/>
</svg>
